# xmcd CD database file
#
# Track frame offsets:
#	150
#	17937
#	46761
#	77339
#	95034
#	109266
#	134473
#	156452
#	170094
#	184236
#	207046
#	235185
#	250795
#	275599
#
# Disc length: 3932 seconds
#
# Revision: 0
# Processed by: cddbd v1.5PL3 Copyright (c) Steve Scherf et al.
# Submitted via: CDex 1.50Beta7
#
DISCID=c10f5a0e
DTITLE=Boris Kozlov Quartet - Tribute to Charles Mingus
DYEAR=1999
DGENRE=Jazz
TTITLE0=Goodbye pork pie hat
TTITLE1=Fables of Faubus
TTITLE2=Duke Ellington's sound of love
TTITLE3=Nostalgia in Time Square
TTITLE4=Boogie stop shuffle
TTITLE5=Pithecanthropus Erectus
TTITLE6=Portrait
TTITLE7=Gunslinging Bird
TTITLE8=Jelly roll
TTITLE9=Peggy's blue skylight
TTITLE10=Reincarnation of a lovebird
TTITLE11=Slippers
TTITLE12=Sue's changes
TTITLE13=Better get hit in your soul
EXTD=YEAR: 1999
EXTT0=
EXTT1=
EXTT2=
EXTT3=
EXTT4=
EXTT5=
EXTT6=
EXTT7=
EXTT8=
EXTT9=
EXTT10=
EXTT11=
EXTT12=
EXTT13=
PLAYORDER=
